<svg width="711" height="378" viewBox="0 0 711 378" fill="none" xmlns="http://www.w3.org/2000/svg">
<path d="M279.03 138.02C277.94 138.02 277.05 137.13 277.05 136.04C277.05 134.95 277.94 134.06 279.03 134.06C280.12 134.06 281.01 134.95 281.01 136.04C281.01 137.13 280.12 138.02 279.03 138.02Z" fill="url(#paint0_linear_592_256)"/>
<path d="M293.01 128.91C294.374 128.91 295.48 127.804 295.48 126.44C295.48 125.076 294.374 123.97 293.01 123.97C291.646 123.97 290.54 125.076 290.54 126.44C290.54 127.804 291.646 128.91 293.01 128.91Z" fill="url(#paint1_linear_592_256)"/>
<path d="M308.83 123.18C310.427 123.18 311.72 121.886 311.72 120.29C311.72 118.694 310.427 117.4 308.83 117.4C307.234 117.4 305.94 118.694 305.94 120.29C305.94 121.886 307.234 123.18 308.83 123.18Z" fill="url(#paint2_linear_592_256)"/>
<path d="M325.63 121.26C323.81 121.26 322.32 119.78 322.32 117.95C322.32 116.12 323.8 114.64 325.63 114.64C327.46 114.64 328.94 116.12 328.94 117.95C328.94 119.78 327.46 121.26 325.63 121.26Z" fill="url(#paint3_linear_592_256)"/>
<path d="M342.53 123.32C340.48 123.32 338.8 121.65 338.8 119.59C338.8 117.53 340.47 115.86 342.53 115.86C344.59 115.86 346.26 117.53 346.26 119.59C346.26 121.65 344.59 123.32 342.53 123.32Z" fill="url(#paint4_linear_592_256)"/>
<path d="M358.68 128.92C360.95 128.92 362.79 127.08 362.79 124.81C362.79 122.54 360.95 120.7 358.68 120.7C356.41 120.7 354.57 122.54 354.57 124.81C354.57 127.08 356.41 128.92 358.68 128.92Z" fill="url(#paint5_linear_592_256)"/>
<path d="M373.98 136.71C371.52 136.71 369.51 134.71 369.51 132.24C369.51 129.77 371.51 127.77 373.98 127.77C376.45 127.77 378.45 129.77 378.45 132.24C378.45 134.71 376.45 136.71 373.98 136.71Z" fill="url(#paint6_linear_592_256)"/>
<path d="M389.08 144.86C386.43 144.86 384.28 142.71 384.28 140.06C384.28 137.41 386.43 135.26 389.08 135.26C391.73 135.26 393.88 137.41 393.88 140.06C393.88 142.71 391.73 144.86 389.08 144.86Z" fill="url(#paint7_linear_592_256)"/>
<path d="M404.18 152.98C401.37 152.98 399.08 150.69 399.08 147.88C399.08 145.07 401.37 142.78 404.18 142.78C406.99 142.78 409.28 145.07 409.28 147.88C409.28 150.69 406.99 152.98 404.18 152.98Z" fill="url(#paint8_linear_592_256)"/>
<path d="M419.48 160.7C416.51 160.7 414.09 158.28 414.09 155.31C414.09 152.34 416.51 149.92 419.48 149.92C422.45 149.92 424.87 152.34 424.87 155.31C424.87 158.28 422.45 160.7 419.48 160.7Z" fill="url(#paint9_linear_592_256)"/>
<path d="M435.21 167.54C432.03 167.54 429.43 164.95 429.43 161.76C429.43 158.57 432.02 155.98 435.21 155.98C438.4 155.98 440.99 158.57 440.99 161.76C440.99 164.95 438.4 167.54 435.21 167.54Z" fill="url(#paint10_linear_592_256)"/>
<path d="M451.52 172.79C454.961 172.79 457.75 170.001 457.75 166.56C457.75 163.119 454.961 160.33 451.52 160.33C448.08 160.33 445.29 163.119 445.29 166.56C445.29 170.001 448.08 172.79 451.52 172.79Z" fill="url(#paint11_linear_592_256)"/>
<path d="M468.34 175.44C464.76 175.44 461.85 172.53 461.85 168.95C461.85 165.37 464.76 162.46 468.34 162.46C471.92 162.46 474.83 165.37 474.83 168.95C474.83 172.53 471.92 175.44 468.34 175.44Z" fill="url(#paint12_linear_592_256)"/>
<path d="M485.32 174.86C481.8 174.86 478.94 172 478.94 168.48C478.94 164.96 481.8 162.1 485.32 162.1C488.84 162.1 491.7 164.96 491.7 168.48C491.7 172 488.84 174.86 485.32 174.86Z" fill="url(#paint13_linear_592_256)"/>
<path d="M498.76 165.68C502.057 165.68 504.73 163.007 504.73 159.71C504.73 156.413 502.057 153.74 498.76 153.74C495.463 153.74 492.79 156.413 492.79 159.71C492.79 163.007 495.463 165.68 498.76 165.68Z" fill="url(#paint14_linear_592_256)"/>
<path d="M495.07 149.3C492.14 149.3 489.76 146.92 489.76 143.99C489.76 141.06 492.14 138.68 495.07 138.68C498 138.68 500.38 141.06 500.38 143.99C500.38 146.92 498 149.3 495.07 149.3Z" fill="url(#paint15_linear_592_256)"/>
<path d="M481.68 138.03C479.26 138.03 477.29 136.06 477.29 133.64C477.29 131.22 479.26 129.25 481.68 129.25C484.1 129.25 486.07 131.22 486.07 133.64C486.07 136.06 484.1 138.03 481.68 138.03Z" fill="url(#paint16_linear_592_256)"/>
<path d="M466.27 131.61C469.109 131.61 471.41 129.309 471.41 126.47C471.41 123.631 469.109 121.33 466.27 121.33C463.432 121.33 461.13 123.631 461.13 126.47C461.13 129.309 463.432 131.61 466.27 131.61Z" fill="url(#paint17_linear_592_256)"/>
<path d="M306.96 145.12C307.921 145.12 308.7 144.341 308.7 143.38C308.7 142.419 307.921 141.64 306.96 141.64C305.999 141.64 305.22 142.419 305.22 143.38C305.22 144.341 305.999 145.12 306.96 145.12Z" fill="url(#paint18_linear_592_256)"/>
<path d="M306.96 145.12C307.921 145.12 308.7 144.341 308.7 143.38C308.7 142.419 307.921 141.64 306.96 141.64C305.999 141.64 305.22 142.419 305.22 143.38C305.22 144.341 305.999 145.12 306.96 145.12Z" fill="url(#paint19_linear_592_256)"/>
<path d="M306.96 145.12C307.921 145.12 308.7 144.341 308.7 143.38C308.7 142.419 307.921 141.64 306.96 141.64C305.999 141.64 305.22 142.419 305.22 143.38C305.22 144.341 305.999 145.12 306.96 145.12Z" fill="url(#paint20_linear_592_256)"/>
<path d="M323.48 141.57C322.39 141.57 321.5 140.68 321.5 139.59C321.5 138.5 322.39 137.61 323.48 137.61C324.57 137.61 325.46 138.5 325.46 139.59C325.46 140.68 324.57 141.57 323.48 141.57Z" fill="url(#paint21_linear_592_256)"/>
<path d="M323.48 141.57C322.39 141.57 321.5 140.68 321.5 139.59C321.5 138.5 322.39 137.61 323.48 137.61C324.57 137.61 325.46 138.5 325.46 139.59C325.46 140.68 324.57 141.57 323.48 141.57Z" fill="url(#paint22_linear_592_256)"/>
<path d="M323.48 141.57C322.39 141.57 321.5 140.68 321.5 139.59C321.5 138.5 322.39 137.61 323.48 137.61C324.57 137.61 325.46 138.5 325.46 139.59C325.46 140.68 324.57 141.57 323.48 141.57Z" fill="url(#paint23_linear_592_256)"/>
<path d="M340.39 142.98C339.16 142.98 338.16 141.98 338.16 140.75C338.16 139.52 339.16 138.52 340.39 138.52C341.62 138.52 342.62 139.52 342.62 140.75C342.62 141.98 341.62 142.98 340.39 142.98Z" fill="url(#paint24_linear_592_256)"/>
<path d="M340.39 142.98C339.16 142.98 338.16 141.98 338.16 140.75C338.16 139.52 339.16 138.52 340.39 138.52C341.62 138.52 342.62 139.52 342.62 140.75C342.62 141.98 341.62 142.98 340.39 142.98Z" fill="url(#paint25_linear_592_256)"/>
<path d="M340.39 142.98C339.16 142.98 338.16 141.98 338.16 140.75C338.16 139.52 339.16 138.52 340.39 138.52C341.62 138.52 342.62 139.52 342.62 140.75C342.62 141.98 341.62 142.98 340.39 142.98Z" fill="url(#paint26_linear_592_256)"/>
<path d="M356.32 149.04C354.96 149.04 353.85 147.93 353.85 146.57C353.85 145.21 354.96 144.1 356.32 144.1C357.68 144.1 358.79 145.21 358.79 146.57C358.79 147.93 357.68 149.04 356.32 149.04Z" fill="url(#paint27_linear_592_256)"/>
<path d="M371.16 157.58C372.657 157.58 373.87 156.367 373.87 154.87C373.87 153.373 372.657 152.16 371.16 152.16C369.663 152.16 368.45 153.373 368.45 154.87C368.45 156.367 369.663 157.58 371.16 157.58Z" fill="url(#paint28_linear_592_256)"/>
<path d="M386.21 165.75C384.58 165.75 383.26 164.43 383.26 162.8C383.26 161.17 384.58 159.85 386.21 159.85C387.84 159.85 389.16 161.17 389.16 162.8C389.16 164.43 387.84 165.75 386.21 165.75Z" fill="url(#paint29_linear_592_256)"/>
<path d="M401.58 173.27C399.82 173.27 398.39 171.84 398.39 170.08C398.39 168.32 399.82 166.89 401.58 166.89C403.34 166.89 404.77 168.32 404.77 170.08C404.77 171.84 403.34 173.27 401.58 173.27Z" fill="url(#paint30_linear_592_256)"/>
<path d="M417.33 179.91C415.44 179.91 413.89 178.37 413.89 176.47C413.89 174.57 415.43 173.03 417.33 173.03C419.23 173.03 420.77 174.57 420.77 176.47C420.77 178.37 419.23 179.91 417.33 179.91Z" fill="url(#paint31_linear_592_256)"/>
<path d="M433.48 185.46C435.513 185.46 437.16 183.812 437.16 181.78C437.16 179.748 435.513 178.1 433.48 178.1C431.448 178.1 429.8 179.748 429.8 181.78C429.8 183.812 431.448 185.46 433.48 185.46Z" fill="url(#paint32_linear_592_256)"/>
<path d="M450.03 189.62C452.195 189.62 453.95 187.865 453.95 185.7C453.95 183.535 452.195 181.78 450.03 181.78C447.865 181.78 446.11 183.535 446.11 185.7C446.11 187.865 447.865 189.62 450.03 189.62Z" fill="url(#paint33_linear_592_256)"/>
<path d="M466.88 192.08C464.59 192.08 462.72 190.21 462.72 187.92C462.72 185.63 464.59 183.76 466.88 183.76C469.17 183.76 471.04 185.63 471.04 187.92C471.04 190.21 469.17 192.08 466.88 192.08Z" fill="url(#paint34_linear_592_256)"/>
<path d="M483.88 192.49C481.45 192.49 479.48 190.51 479.48 188.09C479.48 185.67 481.46 183.69 483.88 183.69C486.3 183.69 488.28 185.67 488.28 188.09C488.28 190.51 486.3 192.49 483.88 192.49Z" fill="url(#paint35_linear_592_256)"/>
<path d="M500.72 190.53C498.16 190.53 496.07 188.45 496.07 185.88C496.07 183.31 498.15 181.23 500.72 181.23C503.29 181.23 505.37 183.31 505.37 185.88C505.37 188.45 503.29 190.53 500.72 190.53Z" fill="url(#paint36_linear_592_256)"/>
<path d="M517.02 185.99C514.33 185.99 512.13 183.8 512.13 181.1C512.13 178.4 514.32 176.21 517.02 176.21C519.72 176.21 521.91 178.4 521.91 181.1C521.91 183.8 519.72 185.99 517.02 185.99Z" fill="url(#paint37_linear_592_256)"/>
<path d="M528.85 174.6C526.02 174.6 523.72 172.3 523.72 169.47C523.72 166.64 526.02 164.34 528.85 164.34C531.68 164.34 533.98 166.64 533.98 169.47C533.98 172.3 531.68 174.6 528.85 174.6Z" fill="url(#paint38_linear_592_256)"/>
<path d="M527.42 158.41C524.46 158.41 522.05 156 522.05 153.04C522.05 150.08 524.46 147.67 527.42 147.67C530.38 147.67 532.79 150.08 532.79 153.04C532.79 156 530.38 158.41 527.42 158.41Z" fill="url(#paint39_linear_592_256)"/>
<path d="M517.15 145.18C514.05 145.18 511.54 142.66 511.54 139.57C511.54 136.48 514.06 133.96 517.15 133.96C520.24 133.96 522.76 136.48 522.76 139.57C522.76 142.66 520.24 145.18 517.15 145.18Z" fill="url(#paint40_linear_592_256)"/>
<path d="M504.15 134.49C507.387 134.49 510.01 131.866 510.01 128.63C510.01 125.394 507.387 122.77 504.15 122.77C500.914 122.77 498.29 125.394 498.29 128.63C498.29 131.866 500.914 134.49 504.15 134.49Z" fill="url(#paint41_linear_592_256)"/>
<path d="M490.02 125.28C486.66 125.28 483.92 122.54 483.92 119.18C483.92 115.82 486.66 113.08 490.02 113.08C493.38 113.08 496.12 115.82 496.12 119.18C496.12 122.54 493.38 125.28 490.02 125.28Z" fill="url(#paint42_linear_592_256)"/>
<path d="M384.52 189.32C383.41 189.32 382.51 188.42 382.51 187.31C382.51 186.2 383.41 185.3 384.52 185.3C385.63 185.3 386.53 186.2 386.53 187.31C386.53 188.42 385.63 189.32 384.52 189.32Z" fill="url(#paint43_linear_592_256)"/>
<path d="M399.82 196.86C398.63 196.86 397.67 195.89 397.67 194.71C397.67 193.53 398.64 192.56 399.82 192.56C401 192.56 401.97 193.53 401.97 194.71C401.97 195.89 401 196.86 399.82 196.86Z" fill="url(#paint44_linear_592_256)"/>
<path d="M415.55 203.66C414.18 203.66 413.07 202.55 413.07 201.18C413.07 199.81 414.18 198.7 415.55 198.7C416.92 198.7 418.03 199.81 418.03 201.18C418.03 202.55 416.92 203.66 415.55 203.66Z" fill="url(#paint45_linear_592_256)"/>
<path d="M431.66 209.4C430.11 209.4 428.86 208.14 428.86 206.59C428.86 205.04 430.12 203.78 431.66 203.78C433.2 203.78 434.47 205.04 434.47 206.59C434.47 208.14 433.21 209.4 431.66 209.4Z" fill="url(#paint46_linear_592_256)"/>
<path d="M448.15 213.87C446.42 213.87 445.02 212.46 445.02 210.74C445.02 209.02 446.43 207.61 448.15 207.61C449.87 207.61 451.28 209.01 451.28 210.74C451.28 212.47 449.87 213.87 448.15 213.87Z" fill="url(#paint47_linear_592_256)"/>
<path d="M464.95 216.8C466.861 216.8 468.41 215.251 468.41 213.34C468.41 211.429 466.861 209.88 464.95 209.88C463.039 209.88 461.49 211.429 461.49 213.34C461.49 215.251 463.039 216.8 464.95 216.8Z" fill="url(#paint48_linear_592_256)"/>
<path d="M481.93 217.78C484.018 217.78 485.71 216.088 485.71 214C485.71 211.912 484.018 210.22 481.93 210.22C479.843 210.22 478.15 211.912 478.15 214C478.15 216.088 479.843 217.78 481.93 217.78Z" fill="url(#paint49_linear_592_256)"/>
<path d="M498.83 216.35C496.56 216.35 494.72 214.51 494.72 212.24C494.72 209.97 496.56 208.13 498.83 208.13C501.1 208.13 502.94 209.97 502.94 212.24C502.94 214.51 501.1 216.35 498.83 216.35Z" fill="url(#paint50_linear_592_256)"/>
<path d="M515.17 212.04C512.72 212.04 510.73 210.05 510.73 207.6C510.73 205.15 512.72 203.16 515.17 203.16C517.62 203.16 519.61 205.15 519.61 207.6C519.61 210.05 517.62 212.04 515.17 212.04Z" fill="url(#paint51_linear_592_256)"/>
<path d="M530.26 204.59C527.63 204.59 525.5 202.45 525.5 199.83C525.5 197.21 527.64 195.07 530.26 195.07C532.88 195.07 535.02 197.21 535.02 199.83C535.02 202.45 532.88 204.59 530.26 204.59Z" fill="url(#paint52_linear_592_256)"/>
<path d="M543.09 193.87C540.28 193.87 538 191.59 538 188.78C538 185.97 540.28 183.69 543.09 183.69C545.9 183.69 548.18 185.97 548.18 188.78C548.18 191.59 545.9 193.87 543.09 193.87Z" fill="url(#paint53_linear_592_256)"/>
<path d="M550.8 179.17C547.81 179.17 545.38 176.74 545.38 173.75C545.38 170.76 547.81 168.33 550.8 168.33C553.79 168.33 556.22 170.76 556.22 173.75C556.22 176.74 553.79 179.17 550.8 179.17Z" fill="url(#paint54_linear_592_256)"/>
<path d="M551.52 162.64C548.35 162.64 545.78 160.06 545.78 156.9C545.78 153.74 548.36 151.16 551.52 151.16C554.68 151.16 557.26 153.74 557.26 156.9C557.26 160.06 554.68 162.64 551.52 162.64Z" fill="url(#paint55_linear_592_256)"/>
<path d="M544.5 147.65C541.15 147.65 538.43 144.93 538.43 141.58C538.43 138.23 541.15 135.51 544.5 135.51C547.85 135.51 550.57 138.23 550.57 141.58C550.57 144.93 547.85 147.65 544.5 147.65Z" fill="url(#paint56_linear_592_256)"/>
<path d="M548.52 213.4C545.04 213.4 542.21 210.57 542.21 207.09C542.21 203.61 545.04 200.78 548.52 200.78C552 200.78 554.83 203.61 554.83 207.09C554.83 210.57 552 213.4 548.52 213.4Z" fill="url(#paint57_linear_592_256)"/>
<path d="M535.09 223.38C531.85 223.38 529.22 220.75 529.22 217.51C529.22 214.27 531.85 211.64 535.09 211.64C538.33 211.64 540.97 214.27 540.97 217.51C540.97 220.75 538.33 223.38 535.09 223.38Z" fill="url(#paint58_linear_592_256)"/>
<path d="M520.04 230.83C517.04 230.83 514.6 228.39 514.6 225.39C514.6 222.39 517.04 219.95 520.04 219.95C523.04 219.95 525.48 222.39 525.48 225.39C525.48 228.39 523.04 230.83 520.04 230.83Z" fill="url(#paint59_linear_592_256)"/>
<path d="M503.85 235.51C501.09 235.51 498.84 233.26 498.84 230.5C498.84 227.74 501.09 225.49 503.85 225.49C506.61 225.49 508.86 227.74 508.86 230.5C508.86 233.26 506.61 235.51 503.85 235.51Z" fill="url(#paint60_linear_592_256)"/>
<path d="M487.03 237.53C484.5 237.53 482.45 235.48 482.45 232.95C482.45 230.42 484.5 228.37 487.03 228.37C489.56 228.37 491.61 230.42 491.61 232.95C491.61 235.48 489.56 237.53 487.03 237.53Z" fill="url(#paint61_linear_592_256)"/>
<path d="M470.03 237.18C467.74 237.18 465.88 235.32 465.88 233.03C465.88 230.74 467.74 228.88 470.03 228.88C472.32 228.88 474.18 230.74 474.18 233.03C474.18 235.32 472.32 237.18 470.03 237.18Z" fill="url(#paint62_linear_592_256)"/>
<path d="M453.14 234.83C451.09 234.83 449.42 233.16 449.42 231.11C449.42 229.06 451.09 227.39 453.14 227.39C455.19 227.39 456.86 229.06 456.86 231.11C456.86 233.16 455.19 234.83 453.14 234.83Z" fill="url(#paint63_linear_592_256)"/>
<path d="M436.52 230.82C434.71 230.82 433.23 229.35 433.23 227.53C433.23 225.71 434.7 224.25 436.52 224.25C438.34 224.25 439.8 225.72 439.8 227.53C439.8 229.34 438.33 230.82 436.52 230.82Z" fill="url(#paint64_linear_592_256)"/>
<path d="M420.25 225.45C418.68 225.45 417.4 224.17 417.4 222.6C417.4 221.03 418.68 219.75 420.25 219.75C421.82 219.75 423.1 221.03 423.1 222.6C423.1 224.17 421.82 225.45 420.25 225.45Z" fill="url(#paint65_linear_592_256)"/>
<path d="M404.38 218.91C403.05 218.91 401.96 217.82 401.96 216.49C401.96 215.16 403.05 214.07 404.38 214.07C405.71 214.07 406.8 215.16 406.8 216.49C406.8 217.82 405.71 218.91 404.38 218.91Z" fill="url(#paint66_linear_592_256)"/>
<path d="M388.95 211.48C387.77 211.48 386.81 210.52 386.81 209.34C386.81 208.16 387.77 207.2 388.95 207.2C390.13 207.2 391.09 208.16 391.09 209.34C391.09 210.52 390.13 211.48 388.95 211.48Z" fill="url(#paint67_linear_592_256)"/>
<path d="M175.84 47.42L195.06 28.2C194.78 27.6 194.63 26.95 194.63 26.28C194.63 23.8 196.65 21.78 199.13 21.78C201.61 21.78 203.63 23.8 203.63 26.28C203.63 28.76 201.61 30.78 199.13 30.78C198.68 30.78 198.22 30.71 197.78 30.57L178.39 49.96L175.85 47.42H175.84Z" fill="url(#paint68_linear_592_256)"/>
<path d="M189.65 124.63V87.22C188.04 86.51 186.95 84.89 186.95 83.1C186.95 80.62 188.97 78.6 191.45 78.6C193.93 78.6 195.95 80.62 195.95 83.1C195.95 84.89 194.87 86.51 193.25 87.22V124.63H189.65Z" fill="url(#paint69_linear_592_256)"/>
<path d="M204.2 45.65L229.55 20.3H247.2C247.91 18.69 249.53 17.6 251.32 17.6C253.8 17.6 255.82 19.62 255.82 22.1C255.82 24.58 253.8 26.6 251.32 26.6C249.53 26.6 247.91 25.52 247.2 23.9H231.04L206.75 48.19L204.21 45.65H204.2Z" fill="url(#paint70_linear_592_256)"/>
<path d="M204.15 145.11C201.67 145.11 199.65 143.09 199.65 140.61C199.65 138.82 200.73 137.2 202.35 136.49V88.2699L222.21 67.9399L224.79 70.4499L205.96 89.7299V136.48C207.57 137.19 208.66 138.81 208.66 140.6C208.66 143.08 206.64 145.1 204.16 145.1L204.15 145.11Z" fill="url(#paint71_linear_592_256)"/>
<path d="M228.82 68.4C226.34 68.4 224.32 66.38 224.32 63.9C224.32 61.42 226.34 59.4 228.82 59.4C229.38 59.4 229.94 59.51 230.46 59.71L243.66 46.51H280.54V50.11H245.15L233.01 62.25C233.22 62.77 233.32 63.33 233.32 63.89C233.32 66.37 231.3 68.39 228.82 68.39V68.4Z" fill="url(#paint72_linear_592_256)"/>
<path d="M220.54 52.45C218.06 52.45 216.04 50.43 216.04 47.95C216.04 45.47 218.06 43.45 220.54 43.45C221.1 43.45 221.66 43.5599 222.18 43.7599L235.87 30.0699H257.29V33.67H237.36L224.72 46.31C224.93 46.83 225.03 47.39 225.03 47.95C225.03 50.43 223.01 52.45 220.53 52.45H220.54Z" fill="url(#paint73_linear_592_256)"/>
<path d="M208.14 15.12L220.56 2.69998H269.48C270.19 1.08998 271.81 0 273.6 0C276.08 0 278.1 2.02 278.1 4.5C278.1 6.98 276.08 9 273.6 9C271.81 9 270.19 7.91999 269.48 6.29999H222.05L210.68 17.67L208.14 15.13V15.12Z" fill="url(#paint74_linear_592_256)"/>
<path d="M356.39 53.9099C353.91 53.9099 351.89 51.8899 351.89 49.4099C351.89 48.8499 352 48.2899 352.2 47.7699L332.97 28.5299H279.09V24.9299H334.46L354.75 45.2199C355.27 45.0199 355.83 44.9099 356.39 44.9099C358.87 44.9099 360.89 46.9299 360.89 49.4099C360.89 51.8899 358.87 53.9099 356.39 53.9099Z" fill="url(#paint75_linear_592_256)"/>
<path d="M364.29 36.79C361.81 36.79 359.79 34.77 359.79 32.29C359.79 31.67 359.92 31.05 360.17 30.49L336.41 6.72998H289.72V3.13H337.9L362.81 28.04C363.28 27.88 363.79 27.79 364.28 27.79C366.76 27.79 368.78 29.81 368.78 32.29C368.78 34.77 366.76 36.79 364.28 36.79H364.29Z" fill="url(#paint76_linear_592_256)"/>
<path d="M205.92 178.96C205.36 179.2 204.76 179.32 204.15 179.32C201.67 179.32 199.65 177.3 199.65 174.82C199.65 172.34 201.67 170.32 204.15 170.32C206.63 170.32 208.65 172.34 208.65 174.82C208.65 175.33 208.56 175.84 208.39 176.33L222.57 190.51L220.03 193.05L205.94 178.96H205.92Z" fill="url(#paint77_linear_592_256)"/>
<path d="M251.32 229.81C249.53 229.81 247.91 228.73 247.2 227.11H229.55L204.2 201.76L206.74 199.22L231.03 223.51H247.19C247.9 221.9 249.52 220.81 251.31 220.81C253.79 220.81 255.81 222.83 255.81 225.31C255.81 227.79 253.79 229.81 251.31 229.81H251.32Z" fill="url(#paint78_linear_592_256)"/>
<path d="M202.35 159.13V148.23H205.95V157.66L224.78 176.94L222.21 179.46L202.35 159.13Z" fill="url(#paint79_linear_592_256)"/>
<path d="M243.65 200.89L230.45 187.69C229.93 187.89 229.37 188 228.81 188C226.33 188 224.31 185.98 224.31 183.5C224.31 181.02 226.33 179 228.81 179C231.29 179 233.31 181.02 233.31 183.5C233.31 184.06 233.2 184.62 233 185.14L245.14 197.28H280.53V200.88H243.65V200.89Z" fill="url(#paint80_linear_592_256)"/>
<path d="M307.72 213.82C305.93 213.82 304.31 212.74 303.6 211.12H279.1V207.52H303.6C304.31 205.91 305.93 204.82 307.72 204.82C310.2 204.82 312.22 206.84 312.22 209.32C312.22 211.8 310.2 213.82 307.72 213.82Z" fill="url(#paint81_linear_592_256)"/>
<path d="M326.13 208.09L354.86 179.36V174.08C353.25 173.37 352.16 171.75 352.16 169.96C352.16 167.48 354.18 165.46 356.66 165.46C359.14 165.46 361.16 167.48 361.16 169.96C361.16 171.75 360.08 173.37 358.46 174.08V180.85L328.67 210.64L326.13 208.1V208.09Z" fill="url(#paint82_linear_592_256)"/>
<path d="M204.15 77.08C201.67 77.08 199.65 75.06 199.65 72.58C199.65 70.1 201.67 68.08 204.15 68.08C204.76 68.08 205.36 68.2 205.92 68.44L220.01 54.35L222.55 56.89L208.37 71.07C208.54 71.55 208.63 72.07 208.63 72.58C208.63 75.06 206.61 77.08 204.13 77.08H204.15Z" fill="url(#paint83_linear_592_256)"/>
<path d="M179.31 124.63V66.11L193.35 52.07C193.13 51.53 193.01 50.95 193.01 50.36C193.01 47.88 195.03 45.86 197.51 45.86C199.99 45.86 202.01 47.88 202.01 50.36C202.01 52.84 199.99 54.86 197.51 54.86C196.98 54.86 196.44 54.76 195.94 54.57L182.91 67.6V124.63H179.31Z" fill="url(#paint84_linear_592_256)"/>
<path d="M167.49 103.36V68.02C165.88 67.31 164.79 65.69 164.79 63.9C164.79 61.42 166.81 59.4 169.29 59.4C171.77 59.4 173.79 61.42 173.79 63.9C173.79 65.69 172.71 67.31 171.09 68.02V103.36H167.49Z" fill="url(#paint85_linear_592_256)"/>
<path d="M157.47 104.74C154.99 104.74 152.97 102.72 152.97 100.24C152.97 98.5 153.97 96.93 155.52 96.19V62.85H159.42V96.19C160.96 96.93 161.97 98.5 161.97 100.24C161.97 102.72 159.95 104.74 157.47 104.74Z" fill="url(#paint86_linear_592_256)"/>
<path d="M157.47 134.67C154.99 134.67 152.97 132.65 152.97 130.17C152.97 128.43 153.97 126.86 155.52 126.12V111.89H159.42V126.12C160.96 126.86 161.97 128.43 161.97 130.17C161.97 132.65 159.95 134.67 157.47 134.67Z" fill="url(#paint87_linear_592_256)"/>
<path d="M323.38 20.85C321.59 20.85 319.97 19.77 319.26 18.15H262.95V14.55H319.26C319.97 12.94 321.59 11.85 323.38 11.85C325.86 11.85 327.88 13.87 327.88 16.35C327.88 18.83 325.86 20.85 323.38 20.85Z" fill="url(#paint88_linear_592_256)"/>
<path d="M307.72 42.58C305.93 42.58 304.31 41.5 303.6 39.88H279.1V36.28H303.6C304.31 34.67 305.93 33.58 307.72 33.58C310.2 33.58 312.22 35.6 312.22 38.08C312.22 40.56 310.2 42.58 307.72 42.58Z" fill="url(#paint89_linear_592_256)"/>
<path d="M335.83 72.1C333.35 72.1 331.33 70.08 331.33 67.6C331.33 67.04 331.44 66.48 331.64 65.96L313.88 48.2L316.42 45.66L334.18 63.42C334.7 63.22 335.26 63.11 335.82 63.11C338.3 63.11 340.32 65.13 340.32 67.61C340.32 70.09 338.3 72.11 335.82 72.11L335.83 72.1Z" fill="url(#paint90_linear_592_256)"/>
<path d="M356.66 85.53C354.18 85.53 352.16 83.51 352.16 81.03C352.16 79.24 353.24 77.62 354.86 76.91V68.04L326.13 39.31L328.67 36.77L358.46 66.56V76.92C360.07 77.63 361.16 79.25 361.16 81.04C361.16 83.52 359.14 85.54 356.66 85.54V85.53Z" fill="url(#paint91_linear_592_256)"/>
<path d="M307 57.15C306.48 57.36 305.92 57.46 305.36 57.46C302.88 57.46 300.86 55.44 300.86 52.96C300.86 50.48 302.88 48.46 305.36 48.46C307.84 48.46 309.86 50.48 309.86 52.96C309.86 53.52 309.75 54.0799 309.55 54.5999L334.77 79.8199L332.23 82.36L307.01 57.14L307 57.15Z" fill="url(#paint92_linear_592_256)"/>
<path d="M199.13 225.62C196.65 225.62 194.63 223.6 194.63 221.12C194.63 220.45 194.78 219.8 195.06 219.2L175.84 199.98L178.38 197.44L197.77 216.83C198.21 216.69 198.67 216.62 199.12 216.62C201.6 216.62 203.62 218.64 203.62 221.12C203.62 223.6 201.6 225.62 199.12 225.62H199.13Z" fill="url(#paint93_linear_592_256)"/>
<path d="M273.6 247.41C271.81 247.41 270.19 246.33 269.48 244.71H220.56L208.14 232.29L210.68 229.75L222.05 241.12H269.48C270.19 239.51 271.81 238.42 273.6 238.42C276.08 238.42 278.1 240.44 278.1 242.92C278.1 245.4 276.08 247.42 273.6 247.42V247.41Z" fill="url(#paint94_linear_592_256)"/>
<path d="M191.45 168.8C188.97 168.8 186.95 166.78 186.95 164.3C186.95 162.51 188.03 160.89 189.65 160.18V136.11H193.25V160.18C194.86 160.89 195.95 162.51 195.95 164.3C195.95 166.78 193.93 168.8 191.45 168.8Z" fill="url(#paint95_linear_592_256)"/>
<path d="M235.88 217.33L222.19 203.64C221.67 203.85 221.11 203.95 220.55 203.95C218.07 203.95 216.05 201.93 216.05 199.45C216.05 196.97 218.07 194.95 220.55 194.95C223.03 194.95 225.05 196.97 225.05 199.45C225.05 200.01 224.94 200.57 224.74 201.09L237.38 213.73H257.31V217.33H235.89H235.88Z" fill="url(#paint96_linear_592_256)"/>
<path d="M197.5 201.54C195.02 201.54 193 199.52 193 197.04C193 196.45 193.12 195.87 193.34 195.33L179.3 181.29V144.04H182.9V179.8L195.93 192.83C196.43 192.64 196.97 192.54 197.5 192.54C199.98 192.54 202 194.56 202 197.04C202 199.52 199.98 201.54 197.5 201.54Z" fill="url(#paint97_linear_592_256)"/>
<path d="M169.29 188C166.81 188 164.79 185.98 164.79 183.5C164.79 181.71 165.87 180.09 167.49 179.38V144.04H171.09V179.38C172.7 180.09 173.79 181.71 173.79 183.5C173.79 185.98 171.77 188 169.29 188Z" fill="url(#paint98_linear_592_256)"/>
<path d="M155.52 184.56V151.22C153.98 150.48 152.97 148.91 152.97 147.17C152.97 144.69 154.99 142.67 157.47 142.67C159.95 142.67 161.97 144.69 161.97 147.17C161.97 148.91 160.97 150.48 159.42 151.22V184.56H155.52Z" fill="url(#paint99_linear_592_256)"/>
<path d="M323.38 235.55C321.59 235.55 319.97 234.47 319.26 232.85H262.95V229.25H319.26C319.97 227.64 321.59 226.55 323.38 226.55C325.86 226.55 327.88 228.57 327.88 231.05C327.88 233.53 325.86 235.55 323.38 235.55Z" fill="url(#paint100_linear_592_256)"/>
<path d="M289.73 244.28V240.68H336.42L360.18 216.92C359.93 216.35 359.8 215.74 359.8 215.12C359.8 212.64 361.82 210.62 364.3 210.62C366.78 210.62 368.8 212.64 368.8 215.12C368.8 217.6 366.78 219.62 364.3 219.62C363.8 219.62 363.3 219.53 362.83 219.37L337.92 244.28H289.74H289.73Z" fill="url(#paint101_linear_592_256)"/>
<path d="M279.1 222.46V218.86H332.98L352.21 199.63C352 199.11 351.9 198.55 351.9 197.99C351.9 195.51 353.92 193.49 356.4 193.49C358.88 193.49 360.9 195.51 360.9 197.99C360.9 200.47 358.88 202.49 356.4 202.49C355.84 202.49 355.28 202.38 354.76 202.18L334.47 222.47H279.1V222.46Z" fill="url(#paint102_linear_592_256)"/>
<path d="M305.36 198.94C302.88 198.94 300.86 196.92 300.86 194.44C300.86 191.96 302.88 189.94 305.36 189.94C305.92 189.94 306.48 190.05 307 190.25L332.22 165.03L334.76 167.57L309.54 192.79C309.75 193.31 309.85 193.87 309.85 194.43C309.85 196.91 307.83 198.93 305.35 198.93L305.36 198.94Z" fill="url(#paint103_linear_592_256)"/>
<path d="M313.88 199.21L331.64 181.45C331.43 180.93 331.33 180.37 331.33 179.81C331.33 177.33 333.35 175.31 335.83 175.31C338.31 175.31 340.33 177.33 340.33 179.81C340.33 182.29 338.31 184.31 335.83 184.31C335.27 184.31 334.71 184.2 334.19 184L316.43 201.76L313.89 199.22L313.88 199.21Z" fill="url(#paint104_linear_592_256)"/>
<path d="M372.35 196.74C372.383 196.74 372.41 196.713 372.41 196.68C372.41 196.647 372.383 196.62 372.35 196.62C372.317 196.62 372.29 196.647 372.29 196.68C372.29 196.713 372.317 196.74 372.35 196.74Z" fill="url(#paint105_linear_592_256)"/>
<path d="M372.35 196.74C372.383 196.74 372.41 196.713 372.41 196.68C372.41 196.647 372.383 196.62 372.35 196.62C372.317 196.62 372.29 196.647 372.29 196.68C372.29 196.713 372.317 196.74 372.35 196.74Z" fill="url(#paint106_linear_592_256)"/>
<path d="M372.35 196.74C372.383 196.74 372.41 196.713 372.41 196.68C372.41 196.647 372.383 196.62 372.35 196.62C372.317 196.62 372.29 196.647 372.29 196.68C372.29 196.713 372.317 196.74 372.35 196.74Z" fill="url(#paint107_linear_592_256)"/>
<path d="M63.03 377.48H10.51C7.63999 377.48 5.16999 376.45 3.09999 374.38C1.02999 372.31 0 369.85 0 366.97V314.45C0 311.58 1.02999 309.11 3.09999 307.04C5.16999 304.97 7.62999 303.94 10.51 303.94H63.03V318.54H15.76V362.87H47.27V343.75H26.26V329.15H63.03V377.47V377.48Z" fill="#000517"/>
<path d="M139.11 377.48H91.8401C88.9701 377.48 86.5001 376.45 84.4301 374.38C82.3601 372.31 81.3301 369.85 81.3301 366.97V314.45C81.3301 311.58 82.3601 309.11 84.4301 307.04C86.5001 304.97 88.9601 303.94 91.8401 303.94H139.11V318.54H97.0901V329.15H139.11V343.75H97.0901V362.87H139.11V377.47V377.48Z" fill="#000517"/>
<path d="M220.43 377.48H204.67L173.16 333.36V377.48H157.4V303.94H173.19L204.67 348.02V303.94H220.43V377.48Z" fill="#000517"/>
<path d="M347.67 303.94L318.25 377.48H298.29L292.52 363.03L286.74 377.48H266.78L237.36 303.94H255.35L276.81 357.88L283.58 340.69L292.57 318.2L301.51 340.55L308.33 357.88L329.79 303.94H347.67Z" fill="#000517"/>
<path d="M396.96 303.95H377.01L347.59 377.48H365.47L372.19 360.67H401.78L408.39 377.48H426.38L396.96 303.95ZM378.03 346.07L386.93 323.55L395.94 346.07H378.03Z" fill="#000517"/>
<path d="M505.13 303.94L475.72 377.48H455.76L426.34 303.94H444.33L465.79 357.88L487.26 303.94H505.13Z" fill="#000517"/>
<path d="M578.34 377.48H531.07C528.2 377.48 525.73 376.45 523.66 374.38C521.59 372.31 520.56 369.85 520.56 366.97V314.45C520.56 311.58 521.59 309.11 523.66 307.04C525.73 304.97 528.19 303.94 531.07 303.94H578.34V318.54H536.32V329.15H578.34V343.75H536.32V362.87H578.34V377.47V377.48Z" fill="#000517"/>
<path d="M648.2 303.95H628.24L598.82 377.48H616.7L623.42 360.67H653.01L659.62 377.48H677.61L648.2 303.95ZM629.26 346.07L638.16 323.55L647.17 346.07H629.26Z" fill="#25FAC8"/>
<path d="M710.24 303.94H694.48V377.47H710.24V303.94Z" fill="#25FAC8"/>
<defs>
<linearGradient id="paint0_linear_592_256" x1="278.04" y1="134.33" x2="280.02" y2="137.76" gradientUnits="userSpaceOnUse">
<stop stop-color="#25FAC8"/>
<stop offset="0.19" stop-color="#25EDCA"/>
<stop offset="0.53" stop-color="#25CCCF"/>
<stop offset="0.99" stop-color="#2696D8"/>
<stop offset="1" stop-color="#2795D9"/>
</linearGradient>
<linearGradient id="paint1_linear_592_256" x1="291.78" y1="124.31" x2="294.25" y2="128.58" gradientUnits="userSpaceOnUse">
<stop stop-color="#25FAC8"/>
<stop offset="0.19" stop-color="#25EDCA"/>
<stop offset="0.53" stop-color="#25CCCF"/>
<stop offset="0.99" stop-color="#2696D8"/>
<stop offset="1" stop-color="#2795D9"/>
</linearGradient>
<linearGradient id="paint2_linear_592_256" x1="307.38" y1="117.79" x2="310.28" y2="122.8" gradientUnits="userSpaceOnUse">
<stop stop-color="#25FAC8"/>
<stop offset="0.19" stop-color="#25EDCA"/>
<stop offset="0.53" stop-color="#25CCCF"/>
<stop offset="0.99" stop-color="#2696D8"/>
<stop offset="1" stop-color="#2795D9"/>
</linearGradient>
<linearGradient id="paint3_linear_592_256" x1="323.98" y1="115.09" x2="327.29" y2="120.82" gradientUnits="userSpaceOnUse">
<stop stop-color="#25FAC8"/>
<stop offset="0.19" stop-color="#25EDCA"/>
<stop offset="0.53" stop-color="#25CCCF"/>
<stop offset="0.99" stop-color="#2696D8"/>
<stop offset="1" stop-color="#2795D9"/>
</linearGradient>
<linearGradient id="paint4_linear_592_256" x1="340.66" y1="116.36" x2="344.39" y2="122.82" gradientUnits="userSpaceOnUse">
<stop stop-color="#25FAC8"/>
<stop offset="0.19" stop-color="#25EDCA"/>
<stop offset="0.53" stop-color="#25CCCF"/>
<stop offset="0.99" stop-color="#2696D8"/>
<stop offset="1" stop-color="#2795D9"/>
</linearGradient>
<linearGradient id="paint5_linear_592_256" x1="356.63" y1="121.25" x2="360.74" y2="128.37" gradientUnits="userSpaceOnUse">
<stop stop-color="#25FAC8"/>
<stop offset="0.19" stop-color="#25EDCA"/>
<stop offset="0.53" stop-color="#25CCCF"/>
<stop offset="0.99" stop-color="#2696D8"/>
<stop offset="1" stop-color="#2795D9"/>
</linearGradient>
<linearGradient id="paint6_linear_592_256" x1="371.74" y1="128.38" x2="376.21" y2="136.11" gradientUnits="userSpaceOnUse">
<stop stop-color="#25FAC8"/>
<stop offset="0.19" stop-color="#25EDCA"/>
<stop offset="0.53" stop-color="#25CCCF"/>
<stop offset="0.99" stop-color="#2696D8"/>
<stop offset="1" stop-color="#2795D9"/>
</linearGradient>
<linearGradient id="paint7_linear_592_256" x1="386.68" y1="135.9" x2="391.48" y2="144.22" gradientUnits="userSpaceOnUse">
<stop stop-color="#25FAC8"/>
<stop offset="0.19" stop-color="#25EDCA"/>
<stop offset="0.53" stop-color="#25CCCF"/>
<stop offset="0.99" stop-color="#2696D8"/>
<stop offset="1" stop-color="#2795D9"/>
</linearGradient>
<linearGradient id="paint8_linear_592_256" x1="401.63" y1="143.48" x2="406.73" y2="152.3" gradientUnits="userSpaceOnUse">
<stop stop-color="#25FAC8"/>
<stop offset="0.19" stop-color="#25EDCA"/>
<stop offset="0.53" stop-color="#25CCCF"/>
<stop offset="0.99" stop-color="#2696D8"/>
<stop offset="1" stop-color="#2795D9"/>
</linearGradient>
<linearGradient id="paint9_linear_592_256" x1="416.79" y1="150.64" x2="422.18" y2="159.98" gradientUnits="userSpaceOnUse">
<stop stop-color="#25FAC8"/>
<stop offset="0.19" stop-color="#25EDCA"/>
<stop offset="0.53" stop-color="#25CCCF"/>
<stop offset="0.99" stop-color="#2696D8"/>
<stop offset="1" stop-color="#2795D9"/>
</linearGradient>
<linearGradient id="paint10_linear_592_256" x1="432.33" y1="156.76" x2="438.1" y2="166.76" gradientUnits="userSpaceOnUse">
<stop stop-color="#25FAC8"/>
<stop offset="0.19" stop-color="#25EDCA"/>
<stop offset="0.53" stop-color="#25CCCF"/>
<stop offset="0.99" stop-color="#2696D8"/>
<stop offset="1" stop-color="#2795D9"/>
</linearGradient>
<linearGradient id="paint11_linear_592_256" x1="448.41" y1="161.16" x2="454.63" y2="171.95" gradientUnits="userSpaceOnUse">
<stop stop-color="#25FAC8"/>
<stop offset="0.19" stop-color="#25EDCA"/>
<stop offset="0.53" stop-color="#25CCCF"/>
<stop offset="0.99" stop-color="#2696D8"/>
<stop offset="1" stop-color="#2795D9"/>
</linearGradient>
<linearGradient id="paint12_linear_592_256" x1="465.09" y1="163.33" x2="471.59" y2="174.57" gradientUnits="userSpaceOnUse">
<stop stop-color="#25FAC8"/>
<stop offset="0.19" stop-color="#25EDCA"/>
<stop offset="0.53" stop-color="#25CCCF"/>
<stop offset="0.99" stop-color="#2696D8"/>
<stop offset="1" stop-color="#2795D9"/>
</linearGradient>
<linearGradient id="paint13_linear_592_256" x1="482.13" y1="162.95" x2="488.51" y2="174" gradientUnits="userSpaceOnUse">
<stop stop-color="#25FAC8"/>
<stop offset="0.19" stop-color="#25EDCA"/>
<stop offset="0.53" stop-color="#25CCCF"/>
<stop offset="0.99" stop-color="#2696D8"/>
<stop offset="1" stop-color="#2795D9"/>
</linearGradient>
<linearGradient id="paint14_linear_592_256" x1="495.78" y1="154.55" x2="501.75" y2="164.88" gradientUnits="userSpaceOnUse">
<stop stop-color="#25FAC8"/>
<stop offset="0.19" stop-color="#25EDCA"/>
<stop offset="0.53" stop-color="#25CCCF"/>
<stop offset="0.99" stop-color="#2696D8"/>
<stop offset="1" stop-color="#2795D9"/>
</linearGradient>
<linearGradient id="paint15_linear_592_256" x1="492.42" y1="139.39" x2="497.73" y2="148.58" gradientUnits="userSpaceOnUse">
<stop stop-color="#25FAC8"/>
<stop offset="0.19" stop-color="#25EDCA"/>
<stop offset="0.53" stop-color="#25CCCF"/>
<stop offset="0.99" stop-color="#2696D8"/>
<stop offset="1" stop-color="#2795D9"/>
</linearGradient>
<linearGradient id="paint16_linear_592_256" x1="479.49" y1="129.85" x2="483.87" y2="137.45" gradientUnits="userSpaceOnUse">
<stop stop-color="#25FAC8"/>
<stop offset="0.19" stop-color="#25EDCA"/>
<stop offset="0.53" stop-color="#25CCCF"/>
<stop offset="0.99" stop-color="#2696D8"/>
<stop offset="1" stop-color="#2795D9"/>
</linearGradient>
<linearGradient id="paint17_linear_592_256" x1="463.71" y1="122.03" x2="468.84" y2="130.92" gradientUnits="userSpaceOnUse">
<stop stop-color="#25FAC8"/>
<stop offset="0.19" stop-color="#25EDCA"/>
<stop offset="0.53" stop-color="#25CCCF"/>
<stop offset="0.99" stop-color="#2696D8"/>
<stop offset="1" stop-color="#2795D9"/>
</linearGradient>
<linearGradient id="paint18_linear_592_256" x1="306.09" y1="141.87" x2="307.83" y2="144.89" gradientUnits="userSpaceOnUse">
<stop stop-color="#25FAC8"/>
<stop offset="0.19" stop-color="#25EDCA"/>
<stop offset="0.53" stop-color="#25CCCF"/>
<stop offset="0.99" stop-color="#2696D8"/>
<stop offset="1" stop-color="#2795D9"/>
</linearGradient>
<linearGradient id="paint19_linear_592_256" x1="306.09" y1="141.87" x2="307.83" y2="144.89" gradientUnits="userSpaceOnUse">
<stop stop-color="#25FAC8"/>
<stop offset="0.19" stop-color="#25EDCA"/>
<stop offset="0.53" stop-color="#25CCCF"/>
<stop offset="0.99" stop-color="#2696D8"/>
<stop offset="1" stop-color="#2795D9"/>
</linearGradient>
<linearGradient id="paint20_linear_592_256" x1="306.09" y1="141.87" x2="307.83" y2="144.89" gradientUnits="userSpaceOnUse">
<stop stop-color="#25FAC8"/>
<stop offset="0.19" stop-color="#25EDCA"/>
<stop offset="0.53" stop-color="#25CCCF"/>
<stop offset="0.99" stop-color="#2696D8"/>
<stop offset="1" stop-color="#2795D9"/>
</linearGradient>
<linearGradient id="paint21_linear_592_256" x1="322.49" y1="137.87" x2="324.47" y2="141.31" gradientUnits="userSpaceOnUse">
<stop stop-color="#25FAC8"/>
<stop offset="0.19" stop-color="#25EDCA"/>
<stop offset="0.53" stop-color="#25CCCF"/>
<stop offset="0.99" stop-color="#2696D8"/>
<stop offset="1" stop-color="#2795D9"/>
</linearGradient>
<linearGradient id="paint22_linear_592_256" x1="322.49" y1="137.87" x2="324.47" y2="141.31" gradientUnits="userSpaceOnUse">
<stop stop-color="#25FAC8"/>
<stop offset="0.19" stop-color="#25EDCA"/>
<stop offset="0.53" stop-color="#25CCCF"/>
<stop offset="0.99" stop-color="#2696D8"/>
<stop offset="1" stop-color="#2795D9"/>
</linearGradient>
<linearGradient id="paint23_linear_592_256" x1="322.49" y1="137.87" x2="324.47" y2="141.31" gradientUnits="userSpaceOnUse">
<stop stop-color="#25FAC8"/>
<stop offset="0.19" stop-color="#25EDCA"/>
<stop offset="0.53" stop-color="#25CCCF"/>
<stop offset="0.99" stop-color="#2696D8"/>
<stop offset="1" stop-color="#2795D9"/>
</linearGradient>
<linearGradient id="paint24_linear_592_256" x1="339.28" y1="138.82" x2="341.5" y2="142.68" gradientUnits="userSpaceOnUse">
<stop stop-color="#25FAC8"/>
<stop offset="0.19" stop-color="#25EDCA"/>
<stop offset="0.53" stop-color="#25CCCF"/>
<stop offset="0.99" stop-color="#2696D8"/>
<stop offset="1" stop-color="#2795D9"/>
</linearGradient>
<linearGradient id="paint25_linear_592_256" x1="339.28" y1="138.82" x2="341.5" y2="142.68" gradientUnits="userSpaceOnUse">
<stop stop-color="#25FAC8"/>
<stop offset="0.19" stop-color="#25EDCA"/>
<stop offset="0.53" stop-color="#25CCCF"/>
<stop offset="0.99" stop-color="#2696D8"/>
<stop offset="1" stop-color="#2795D9"/>
</linearGradient>
<linearGradient id="paint26_linear_592_256" x1="339.28" y1="138.82" x2="341.5" y2="142.68" gradientUnits="userSpaceOnUse">
<stop stop-color="#25FAC8"/>
<stop offset="0.19" stop-color="#25EDCA"/>
<stop offset="0.53" stop-color="#25CCCF"/>
<stop offset="0.99" stop-color="#2696D8"/>
<stop offset="1" stop-color="#2795D9"/>
</linearGradient>
<linearGradient id="paint27_linear_592_256" x1="355.09" y1="144.44" x2="357.55" y2="148.71" gradientUnits="userSpaceOnUse">
<stop stop-color="#25FAC8"/>
<stop offset="0.19" stop-color="#25EDCA"/>
<stop offset="0.53" stop-color="#25CCCF"/>
<stop offset="0.99" stop-color="#2696D8"/>
<stop offset="1" stop-color="#2795D9"/>
</linearGradient>
<linearGradient id="paint28_linear_592_256" x1="369.81" y1="152.52" x2="372.52" y2="157.22" gradientUnits="userSpaceOnUse">
<stop stop-color="#25FAC8"/>
<stop offset="0.19" stop-color="#25EDCA"/>
<stop offset="0.53" stop-color="#25CCCF"/>
<stop offset="0.99" stop-color="#2696D8"/>
<stop offset="1" stop-color="#2795D9"/>
</linearGradient>
<linearGradient id="paint29_linear_592_256" x1="384.73" y1="160.24" x2="387.68" y2="165.36" gradientUnits="userSpaceOnUse">
<stop stop-color="#25FAC8"/>
<stop offset="0.19" stop-color="#25EDCA"/>
<stop offset="0.53" stop-color="#25CCCF"/>
<stop offset="0.99" stop-color="#2696D8"/>
<stop offset="1" stop-color="#2795D9"/>
</linearGradient>
<linearGradient id="paint30_linear_592_256" x1="399.98" y1="167.31" x2="403.17" y2="172.84" gradientUnits="userSpaceOnUse">
<stop stop-color="#25FAC8"/>
<stop offset="0.19" stop-color="#25EDCA"/>
<stop offset="0.53" stop-color="#25CCCF"/>
<stop offset="0.99" stop-color="#2696D8"/>
<stop offset="1" stop-color="#2795D9"/>
</linearGradient>
<linearGradient id="paint31_linear_592_256" x1="415.61" y1="173.5" x2="419.05" y2="179.45" gradientUnits="userSpaceOnUse">
<stop stop-color="#25FAC8"/>
<stop offset="0.19" stop-color="#25EDCA"/>
<stop offset="0.53" stop-color="#25CCCF"/>
<stop offset="0.99" stop-color="#2696D8"/>
<stop offset="1" stop-color="#2795D9"/>
</linearGradient>
<linearGradient id="paint32_linear_592_256" x1="431.64" y1="178.59" x2="435.32" y2="184.96" gradientUnits="userSpaceOnUse">
<stop stop-color="#25FAC8"/>
<stop offset="0.19" stop-color="#25EDCA"/>
<stop offset="0.53" stop-color="#25CCCF"/>
<stop offset="0.99" stop-color="#2696D8"/>
<stop offset="1" stop-color="#2795D9"/>
</linearGradient>
<linearGradient id="paint33_linear_592_256" x1="448.07" y1="182.3" x2="451.99" y2="189.09" gradientUnits="userSpaceOnUse">
<stop stop-color="#25FAC8"/>
<stop offset="0.19" stop-color="#25EDCA"/>
<stop offset="0.53" stop-color="#25CCCF"/>
<stop offset="0.99" stop-color="#2696D8"/>
<stop offset="1" stop-color="#2795D9"/>
</linearGradient>
<linearGradient id="paint34_linear_592_256" x1="464.8" y1="184.31" x2="468.96" y2="191.52" gradientUnits="userSpaceOnUse">
<stop stop-color="#25FAC8"/>
<stop offset="0.19" stop-color="#25EDCA"/>
<stop offset="0.53" stop-color="#25CCCF"/>
<stop offset="0.99" stop-color="#2696D8"/>
<stop offset="1" stop-color="#2795D9"/>
</linearGradient>
<linearGradient id="paint35_linear_592_256" x1="481.67" y1="184.27" x2="486.08" y2="191.9" gradientUnits="userSpaceOnUse">
<stop stop-color="#25FAC8"/>
<stop offset="0.19" stop-color="#25EDCA"/>
<stop offset="0.53" stop-color="#25CCCF"/>
<stop offset="0.99" stop-color="#2696D8"/>
<stop offset="1" stop-color="#2795D9"/>
</linearGradient>
<linearGradient id="paint36_linear_592_256" x1="498.4" y1="181.87" x2="503.05" y2="189.91" gradientUnits="userSpaceOnUse">
<stop stop-color="#25FAC8"/>
<stop offset="0.19" stop-color="#25EDCA"/>
<stop offset="0.53" stop-color="#25CCCF"/>
<stop offset="0.99" stop-color="#2696D8"/>
<stop offset="1" stop-color="#2795D9"/>
</linearGradient>
<linearGradient id="paint37_linear_592_256" x1="514.58" y1="176.87" x2="519.47" y2="185.34" gradientUnits="userSpaceOnUse">
<stop stop-color="#25FAC8"/>
<stop offset="0.19" stop-color="#25EDCA"/>
<stop offset="0.53" stop-color="#25CCCF"/>
<stop offset="0.99" stop-color="#2696D8"/>
<stop offset="1" stop-color="#2795D9"/>
</linearGradient>
<linearGradient id="paint38_linear_592_256" x1="526.28" y1="165.03" x2="531.41" y2="173.91" gradientUnits="userSpaceOnUse">
<stop stop-color="#25FAC8"/>
<stop offset="0.19" stop-color="#25EDCA"/>
<stop offset="0.53" stop-color="#25CCCF"/>
<stop offset="0.99" stop-color="#2696D8"/>
<stop offset="1" stop-color="#2795D9"/>
</linearGradient>
<linearGradient id="paint39_linear_592_256" x1="524.74" y1="148.38" x2="530.11" y2="157.68" gradientUnits="userSpaceOnUse">
<stop stop-color="#25FAC8"/>
<stop offset="0.19" stop-color="#25EDCA"/>
<stop offset="0.53" stop-color="#25CCCF"/>
<stop offset="0.99" stop-color="#2696D8"/>
<stop offset="1" stop-color="#2795D9"/>
</linearGradient>
<linearGradient id="paint40_linear_592_256" x1="514.34" y1="134.71" x2="519.96" y2="144.43" gradientUnits="userSpaceOnUse">
<stop stop-color="#25FAC8"/>
<stop offset="0.19" stop-color="#25EDCA"/>
<stop offset="0.53" stop-color="#25CCCF"/>
<stop offset="0.99" stop-color="#2696D8"/>
<stop offset="1" stop-color="#2795D9"/>
</linearGradient>
<linearGradient id="paint41_linear_592_256" x1="501.22" y1="123.56" x2="507.07" y2="133.7" gradientUnits="userSpaceOnUse">
<stop stop-color="#25FAC8"/>
<stop offset="0.19" stop-color="#25EDCA"/>
<stop offset="0.53" stop-color="#25CCCF"/>
<stop offset="0.99" stop-color="#2696D8"/>
<stop offset="1" stop-color="#2795D9"/>
</linearGradient>
<linearGradient id="paint42_linear_592_256" x1="486.97" y1="113.9" x2="493.06" y2="124.46" gradientUnits="userSpaceOnUse">
<stop stop-color="#25FAC8"/>
<stop offset="0.19" stop-color="#25EDCA"/>
<stop offset="0.53" stop-color="#25CCCF"/>
<stop offset="0.99" stop-color="#2696D8"/>
<stop offset="1" stop-color="#2795D9"/>
</linearGradient>
<linearGradient id="paint43_linear_592_256" x1="383.51" y1="185.56" x2="385.53" y2="189.05" gradientUnits="userSpaceOnUse">
<stop stop-color="#25FAC8"/>
<stop offset="0.19" stop-color="#25EDCA"/>
<stop offset="0.53" stop-color="#25CCCF"/>
<stop offset="0.99" stop-color="#2696D8"/>
<stop offset="1" stop-color="#2795D9"/>
</linearGradient>
<linearGradient id="paint44_linear_592_256" x1="398.75" y1="192.85" x2="400.9" y2="196.58" gradientUnits="userSpaceOnUse">
<stop stop-color="#25FAC8"/>
<stop offset="0.19" stop-color="#25EDCA"/>
<stop offset="0.53" stop-color="#25CCCF"/>
<stop offset="0.99" stop-color="#2696D8"/>
<stop offset="1" stop-color="#2795D9"/>
</linearGradient>
<linearGradient id="paint45_linear_592_256" x1="414.31" y1="199.04" x2="416.79" y2="203.33" gradientUnits="userSpaceOnUse">
<stop stop-color="#25FAC8"/>
<stop offset="0.19" stop-color="#25EDCA"/>
<stop offset="0.53" stop-color="#25CCCF"/>
<stop offset="0.99" stop-color="#2696D8"/>
<stop offset="1" stop-color="#2795D9"/>
</linearGradient>
<linearGradient id="paint46_linear_592_256" x1="430.26" y1="204.16" x2="433.07" y2="209.02" gradientUnits="userSpaceOnUse">
<stop stop-color="#25FAC8"/>
<stop offset="0.19" stop-color="#25EDCA"/>
<stop offset="0.53" stop-color="#25CCCF"/>
<stop offset="0.99" stop-color="#2696D8"/>
<stop offset="1" stop-color="#2795D9"/>
</linearGradient>
<linearGradient id="paint47_linear_592_256" x1="446.59" y1="208.03" x2="449.72" y2="213.45" gradientUnits="userSpaceOnUse">
<stop stop-color="#25FAC8"/>
<stop offset="0.19" stop-color="#25EDCA"/>
<stop offset="0.53" stop-color="#25CCCF"/>
<stop offset="0.99" stop-color="#2696D8"/>
<stop offset="1" stop-color="#2795D9"/>
</linearGradient>
<linearGradient id="paint48_linear_592_256" x1="463.22" y1="210.35" x2="466.68" y2="216.33" gradientUnits="userSpaceOnUse">
<stop stop-color="#25FAC8"/>
<stop offset="0.19" stop-color="#25EDCA"/>
<stop offset="0.53" stop-color="#25CCCF"/>
<stop offset="0.99" stop-color="#2696D8"/>
<stop offset="1" stop-color="#2795D9"/>
</linearGradient>
<linearGradient id="paint49_linear_592_256" x1="480.04" y1="210.72" x2="483.82" y2="217.28" gradientUnits="userSpaceOnUse">
<stop stop-color="#25FAC8"/>
<stop offset="0.19" stop-color="#25EDCA"/>
<stop offset="0.53" stop-color="#25CCCF"/>
<stop offset="0.99" stop-color="#2696D8"/>
<stop offset="1" stop-color="#2795D9"/>
</linearGradient>
<linearGradient id="paint50_linear_592_256" x1="496.78" y1="208.68" x2="500.88" y2="215.8" gradientUnits="userSpaceOnUse">
<stop stop-color="#25FAC8"/>
<stop offset="0.19" stop-color="#25EDCA"/>
<stop offset="0.53" stop-color="#25CCCF"/>
<stop offset="0.99" stop-color="#2696D8"/>
<stop offset="1" stop-color="#2795D9"/>
</linearGradient>
<linearGradient id="paint51_linear_592_256" x1="512.95" y1="203.76" x2="517.38" y2="211.44" gradientUnits="userSpaceOnUse">
<stop stop-color="#25FAC8"/>
<stop offset="0.19" stop-color="#25EDCA"/>
<stop offset="0.53" stop-color="#25CCCF"/>
<stop offset="0.99" stop-color="#2696D8"/>
<stop offset="1" stop-color="#2795D9"/>
</linearGradient>
<linearGradient id="paint52_linear_592_256" x1="527.88" y1="195.7" x2="532.64" y2="203.95" gradientUnits="userSpaceOnUse">
<stop stop-color="#25FAC8"/>
<stop offset="0.19" stop-color="#25EDCA"/>
<stop offset="0.53" stop-color="#25CCCF"/>
<stop offset="0.99" stop-color="#2696D8"/>
<stop offset="1" stop-color="#2795D9"/>
</linearGradient>
<linearGradient id="paint53_linear_592_256" x1="540.55" y1="184.37" x2="545.64" y2="193.18" gradientUnits="userSpaceOnUse">
<stop stop-color="#25FAC8"/>
<stop offset="0.19" stop-color="#25EDCA"/>
<stop offset="0.53" stop-color="#25CCCF"/>
<stop offset="0.99" stop-color="#2696D8"/>
<stop offset="1" stop-color="#2795D9"/>
</linearGradient>
<linearGradient id="paint54_linear_592_256" x1="548.1" y1="169.06" x2="553.51" y2="178.44" gradientUnits="userSpaceOnUse">
<stop stop-color="#25FAC8"/>
<stop offset="0.19" stop-color="#25EDCA"/>
<stop offset="0.53" stop-color="#25CCCF"/>
<stop offset="0.99" stop-color="#2696D8"/>
<stop offset="1" stop-color="#2795D9"/>
</linearGradient>
<linearGradient id="paint55_linear_592_256" x1="548.65" y1="151.92" x2="554.39" y2="161.87" gradientUnits="userSpaceOnUse">
<stop stop-color="#25FAC8"/>
<stop offset="0.19" stop-color="#25EDCA"/>
<stop offset="0.53" stop-color="#25CCCF"/>
<stop offset="0.99" stop-color="#2696D8"/>
<stop offset="1" stop-color="#2795D9"/>
</linearGradient>
<linearGradient id="paint56_linear_592_256" x1="541.47" y1="136.33" x2="547.53" y2="146.84" gradientUnits="userSpaceOnUse">
<stop stop-color="#25FAC8"/>
<stop offset="0.19" stop-color="#25EDCA"/>
<stop offset="0.53" stop-color="#25CCCF"/>
<stop offset="0.99" stop-color="#2696D8"/>
<stop offset="1" stop-color="#2795D9"/>
</linearGradient>
<linearGradient id="paint57_linear_592_256" x1="545.36" y1="201.64" x2="551.67" y2="212.56" gradientUnits="userSpaceOnUse">
<stop stop-color="#25FAC8"/>
<stop offset="0.19" stop-color="#25EDCA"/>
<stop offset="0.53" stop-color="#25CCCF"/>
<stop offset="0.99" stop-color="#2696D8"/>
<stop offset="1" stop-color="#2795D9"/>
</linearGradient>
<linearGradient id="paint58_linear_592_256" x1="532.16" y1="212.42" x2="538.03" y2="222.59" gradientUnits="userSpaceOnUse">
<stop stop-color="#25FAC8"/>
<stop offset="0.19" stop-color="#25EDCA"/>
<stop offset="0.53" stop-color="#25CCCF"/>
<stop offset="0.99" stop-color="#2696D8"/>
<stop offset="1" stop-color="#2795D9"/>
</linearGradient>
<linearGradient id="paint59_linear_592_256" x1="517.32" y1="220.67" x2="522.76" y2="230.1" gradientUnits="userSpaceOnUse">
<stop stop-color="#25FAC8"/>
<stop offset="0.19" stop-color="#25EDCA"/>
<stop offset="0.53" stop-color="#25CCCF"/>
<stop offset="0.99" stop-color="#2696D8"/>
<stop offset="1" stop-color="#2795D9"/>
</linearGradient>
<linearGradient id="paint60_linear_592_256" x1="501.34" y1="226.16" x2="506.35" y2="234.84" gradientUnits="userSpaceOnUse">
<stop stop-color="#25FAC8"/>
<stop offset="0.19" stop-color="#25EDCA"/>
<stop offset="0.53" stop-color="#25CCCF"/>
<stop offset="0.99" stop-color="#2696D8"/>
<stop offset="1" stop-color="#2795D9"/>
</linearGradient>
<linearGradient id="paint61_linear_592_256" x1="484.74" y1="228.99" x2="489.32" y2="236.92" gradientUnits="userSpaceOnUse">
<stop stop-color="#25FAC8"/>
<stop offset="0.19" stop-color="#25EDCA"/>
<stop offset="0.53" stop-color="#25CCCF"/>
<stop offset="0.99" stop-color="#2696D8"/>
<stop offset="1" stop-color="#2795D9"/>
</linearGradient>
<linearGradient id="paint62_linear_592_256" x1="467.96" y1="229.44" x2="472.11" y2="236.62" gradientUnits="userSpaceOnUse">
<stop stop-color="#25FAC8"/>
<stop offset="0.19" stop-color="#25EDCA"/>
<stop offset="0.53" stop-color="#25CCCF"/>
<stop offset="0.99" stop-color="#2696D8"/>
<stop offset="1" stop-color="#2795D9"/>
</linearGradient>
<linearGradient id="paint63_linear_592_256" x1="451.28" y1="227.89" x2="455" y2="234.33" gradientUnits="userSpaceOnUse">
<stop stop-color="#25FAC8"/>
<stop offset="0.19" stop-color="#25EDCA"/>
<stop offset="0.53" stop-color="#25CCCF"/>
<stop offset="0.99" stop-color="#2696D8"/>
<stop offset="1" stop-color="#2795D9"/>
</linearGradient>
<linearGradient id="paint64_linear_592_256" x1="434.88" y1="224.7" x2="438.16" y2="230.38" gradientUnits="userSpaceOnUse">
<stop stop-color="#25FAC8"/>
<stop offset="0.19" stop-color="#25EDCA"/>
<stop offset="0.53" stop-color="#25CCCF"/>
<stop offset="0.99" stop-color="#2696D8"/>
<stop offset="1" stop-color="#2795D9"/>
</linearGradient>
<linearGradient id="paint65_linear_592_256" x1="418.82" y1="220.12" x2="421.68" y2="225.06" gradientUnits="userSpaceOnUse">
<stop stop-color="#25FAC8"/>
<stop offset="0.19" stop-color="#25EDCA"/>
<stop offset="0.53" stop-color="#25CCCF"/>
<stop offset="0.99" stop-color="#2696D8"/>
<stop offset="1" stop-color="#2795D9"/>
</linearGradient>
<linearGradient id="paint66_linear_592_256" x1="403.17" y1="214.39" x2="405.59" y2="218.58" gradientUnits="userSpaceOnUse">
<stop stop-color="#25FAC8"/>
<stop offset="0.19" stop-color="#25EDCA"/>
<stop offset="0.53" stop-color="#25CCCF"/>
<stop offset="0.99" stop-color="#2696D8"/>
<stop offset="1" stop-color="#2795D9"/>
</linearGradient>
<linearGradient id="paint67_linear_592_256" x1="387.88" y1="207.49" x2="390.02" y2="211.19" gradientUnits="userSpaceOnUse">
<stop stop-color="#25FAC8"/>
<stop offset="0.19" stop-color="#25EDCA"/>
<stop offset="0.53" stop-color="#25CCCF"/>
<stop offset="0.99" stop-color="#2696D8"/>
<stop offset="1" stop-color="#2795D9"/>
</linearGradient>
<linearGradient id="paint68_linear_592_256" x1="189.73" y1="21.79" x2="189.73" y2="49.96" gradientUnits="userSpaceOnUse">
<stop stop-color="#25FAC8"/>
<stop offset="0.19" stop-color="#25EDCA"/>
<stop offset="0.53" stop-color="#25CCCF"/>
<stop offset="0.99" stop-color="#2696D8"/>
<stop offset="1" stop-color="#2795D9"/>
</linearGradient>
<linearGradient id="paint69_linear_592_256" x1="191.44" y1="78.61" x2="191.44" y2="124.63" gradientUnits="userSpaceOnUse">
<stop stop-color="#25FAC8"/>
<stop offset="0.19" stop-color="#25EDCA"/>
<stop offset="0.53" stop-color="#25CCCF"/>
<stop offset="0.99" stop-color="#2696D8"/>
<stop offset="1" stop-color="#2795D9"/>
</linearGradient>
<linearGradient id="paint70_linear_592_256" x1="230.01" y1="17.6" x2="230.01" y2="48.19" gradientUnits="userSpaceOnUse">
<stop stop-color="#25FAC8"/>
<stop offset="0.19" stop-color="#25EDCA"/>
<stop offset="0.53" stop-color="#25CCCF"/>
<stop offset="0.99" stop-color="#2696D8"/>
<stop offset="1" stop-color="#2795D9"/>
</linearGradient>
<linearGradient id="paint71_linear_592_256" x1="212.22" y1="67.9499" x2="212.22" y2="145.11" gradientUnits="userSpaceOnUse">
<stop stop-color="#25FAC8"/>
<stop offset="0.19" stop-color="#25EDCA"/>
<stop offset="0.53" stop-color="#25CCCF"/>
<stop offset="0.99" stop-color="#2696D8"/>
<stop offset="1" stop-color="#2795D9"/>
</linearGradient>
<linearGradient id="paint72_linear_592_256" x1="252.43" y1="46.52" x2="252.43" y2="68.4" gradientUnits="userSpaceOnUse">
<stop stop-color="#25FAC8"/>
<stop offset="0.19" stop-color="#25EDCA"/>
<stop offset="0.53" stop-color="#25CCCF"/>
<stop offset="0.99" stop-color="#2696D8"/>
<stop offset="1" stop-color="#2795D9"/>
</linearGradient>
<linearGradient id="paint73_linear_592_256" x1="236.67" y1="30.0699" x2="236.67" y2="52.45" gradientUnits="userSpaceOnUse">
<stop stop-color="#25FAC8"/>
<stop offset="0.19" stop-color="#25EDCA"/>
<stop offset="0.53" stop-color="#25CCCF"/>
<stop offset="0.99" stop-color="#2696D8"/>
<stop offset="1" stop-color="#2795D9"/>
</linearGradient>
<linearGradient id="paint74_linear_592_256" x1="243.12" y1="0" x2="243.12" y2="17.66" gradientUnits="userSpaceOnUse">
<stop stop-color="#25FAC8"/>
<stop offset="0.19" stop-color="#25EDCA"/>
<stop offset="0.53" stop-color="#25CCCF"/>
<stop offset="0.99" stop-color="#2696D8"/>
<stop offset="1" stop-color="#2795D9"/>
</linearGradient>
<linearGradient id="paint75_linear_592_256" x1="319.99" y1="24.9399" x2="319.99" y2="53.9099" gradientUnits="userSpaceOnUse">
<stop stop-color="#25FAC8"/>
<stop offset="0.19" stop-color="#25EDCA"/>
<stop offset="0.53" stop-color="#25CCCF"/>
<stop offset="0.99" stop-color="#2696D8"/>
<stop offset="1" stop-color="#2795D9"/>
</linearGradient>
<linearGradient id="paint76_linear_592_256" x1="329.26" y1="3.13" x2="329.26" y2="36.79" gradientUnits="userSpaceOnUse">
<stop stop-color="#25FAC8"/>
<stop offset="0.19" stop-color="#25EDCA"/>
<stop offset="0.53" stop-color="#25CCCF"/>
<stop offset="0.99" stop-color="#2696D8"/>
<stop offset="1" stop-color="#2795D9"/>
</linearGradient>
<linearGradient id="paint77_linear_592_256" x1="211.11" y1="170.33" x2="211.11" y2="193.05" gradientUnits="userSpaceOnUse">
<stop stop-color="#25FAC8"/>
<stop offset="0.19" stop-color="#25EDCA"/>
<stop offset="0.53" stop-color="#25CCCF"/>
<stop offset="0.99" stop-color="#2696D8"/>
<stop offset="1" stop-color="#2795D9"/>
</linearGradient>
<linearGradient id="paint78_linear_592_256" x1="230.01" y1="199.22" x2="230.01" y2="229.81" gradientUnits="userSpaceOnUse">
<stop stop-color="#25FAC8"/>
<stop offset="0.19" stop-color="#25EDCA"/>
<stop offset="0.53" stop-color="#25CCCF"/>
<stop offset="0.99" stop-color="#2696D8"/>
<stop offset="1" stop-color="#2795D9"/>
</linearGradient>
<linearGradient id="paint79_linear_592_256" x1="213.56" y1="148.23" x2="213.56" y2="179.46" gradientUnits="userSpaceOnUse">
<stop stop-color="#25FAC8"/>
<stop offset="0.19" stop-color="#25EDCA"/>
<stop offset="0.53" stop-color="#25CCCF"/>
<stop offset="0.99" stop-color="#2696D8"/>
<stop offset="1" stop-color="#2795D9"/>
</linearGradient>
<linearGradient id="paint80_linear_592_256" x1="252.43" y1="179.01" x2="252.43" y2="200.89" gradientUnits="userSpaceOnUse">
<stop stop-color="#25FAC8"/>
<stop offset="0.19" stop-color="#25EDCA"/>
<stop offset="0.53" stop-color="#25CCCF"/>
<stop offset="0.99" stop-color="#2696D8"/>
<stop offset="1" stop-color="#2795D9"/>
</linearGradient>
<linearGradient id="paint81_linear_592_256" x1="295.66" y1="204.83" x2="295.66" y2="213.82" gradientUnits="userSpaceOnUse">
<stop stop-color="#25FAC8"/>
<stop offset="0.19" stop-color="#25EDCA"/>
<stop offset="0.53" stop-color="#25CCCF"/>
<stop offset="0.99" stop-color="#2696D8"/>
<stop offset="1" stop-color="#2795D9"/>
</linearGradient>
<linearGradient id="paint82_linear_592_256" x1="343.64" y1="165.46" x2="343.64" y2="210.64" gradientUnits="userSpaceOnUse">
<stop stop-color="#25FAC8"/>
<stop offset="0.19" stop-color="#25EDCA"/>
<stop offset="0.53" stop-color="#25CCCF"/>
<stop offset="0.99" stop-color="#2696D8"/>
<stop offset="1" stop-color="#2795D9"/>
</linearGradient>
<linearGradient id="paint83_linear_592_256" x1="211.11" y1="54.35" x2="211.11" y2="77.08" gradientUnits="userSpaceOnUse">
<stop stop-color="#25FAC8"/>
<stop offset="0.19" stop-color="#25EDCA"/>
<stop offset="0.53" stop-color="#25CCCF"/>
<stop offset="0.99" stop-color="#2696D8"/>
<stop offset="1" stop-color="#2795D9"/>
</linearGradient>
<linearGradient id="paint84_linear_592_256" x1="190.65" y1="45.86" x2="190.65" y2="124.63" gradientUnits="userSpaceOnUse">
<stop stop-color="#25FAC8"/>
<stop offset="0.19" stop-color="#25EDCA"/>
<stop offset="0.53" stop-color="#25CCCF"/>
<stop offset="0.99" stop-color="#2696D8"/>
<stop offset="1" stop-color="#2795D9"/>
</linearGradient>
<linearGradient id="paint85_linear_592_256" x1="169.29" y1="59.41" x2="169.29" y2="103.36" gradientUnits="userSpaceOnUse">
<stop stop-color="#25FAC8"/>
<stop offset="0.19" stop-color="#25EDCA"/>
<stop offset="0.53" stop-color="#25CCCF"/>
<stop offset="0.99" stop-color="#2696D8"/>
<stop offset="1" stop-color="#2795D9"/>
</linearGradient>
<linearGradient id="paint86_linear_592_256" x1="157.47" y1="62.85" x2="157.47" y2="104.74" gradientUnits="userSpaceOnUse">
<stop stop-color="#25FAC8"/>
<stop offset="0.19" stop-color="#25EDCA"/>
<stop offset="0.53" stop-color="#25CCCF"/>
<stop offset="0.99" stop-color="#2696D8"/>
<stop offset="1" stop-color="#2795D9"/>
</linearGradient>
<linearGradient id="paint87_linear_592_256" x1="157.47" y1="111.89" x2="157.47" y2="134.67" gradientUnits="userSpaceOnUse">
<stop stop-color="#25FAC8"/>
<stop offset="0.19" stop-color="#25EDCA"/>
<stop offset="0.53" stop-color="#25CCCF"/>
<stop offset="0.99" stop-color="#2696D8"/>
<stop offset="1" stop-color="#2795D9"/>
</linearGradient>
<linearGradient id="paint88_linear_592_256" x1="295.41" y1="11.86" x2="295.41" y2="20.85" gradientUnits="userSpaceOnUse">
<stop stop-color="#25FAC8"/>
<stop offset="0.19" stop-color="#25EDCA"/>
<stop offset="0.53" stop-color="#25CCCF"/>
<stop offset="0.99" stop-color="#2696D8"/>
<stop offset="1" stop-color="#2795D9"/>
</linearGradient>
<linearGradient id="paint89_linear_592_256" x1="295.66" y1="33.58" x2="295.66" y2="42.58" gradientUnits="userSpaceOnUse">
<stop stop-color="#25FAC8"/>
<stop offset="0.19" stop-color="#25EDCA"/>
<stop offset="0.53" stop-color="#25CCCF"/>
<stop offset="0.99" stop-color="#2696D8"/>
<stop offset="1" stop-color="#2795D9"/>
</linearGradient>
<linearGradient id="paint90_linear_592_256" x1="327.1" y1="45.66" x2="327.1" y2="72.1" gradientUnits="userSpaceOnUse">
<stop stop-color="#25FAC8"/>
<stop offset="0.19" stop-color="#25EDCA"/>
<stop offset="0.53" stop-color="#25CCCF"/>
<stop offset="0.99" stop-color="#2696D8"/>
<stop offset="1" stop-color="#2795D9"/>
</linearGradient>
<linearGradient id="paint91_linear_592_256" x1="343.64" y1="36.77" x2="343.64" y2="85.53" gradientUnits="userSpaceOnUse">
<stop stop-color="#25FAC8"/>
<stop offset="0.19" stop-color="#25EDCA"/>
<stop offset="0.53" stop-color="#25CCCF"/>
<stop offset="0.99" stop-color="#2696D8"/>
<stop offset="1" stop-color="#2795D9"/>
</linearGradient>
<linearGradient id="paint92_linear_592_256" x1="317.81" y1="48.47" x2="317.81" y2="82.37" gradientUnits="userSpaceOnUse">
<stop stop-color="#25FAC8"/>
<stop offset="0.19" stop-color="#25EDCA"/>
<stop offset="0.53" stop-color="#25CCCF"/>
<stop offset="0.99" stop-color="#2696D8"/>
<stop offset="1" stop-color="#2795D9"/>
</linearGradient>
<linearGradient id="paint93_linear_592_256" x1="-244.88" y1="197.44" x2="-243.88" y2="225.62" gradientUnits="userSpaceOnUse">
<stop stop-color="#25FAC8"/>
<stop offset="0.19" stop-color="#25EDCA"/>
<stop offset="0.53" stop-color="#25CCCF"/>
<stop offset="0.99" stop-color="#2696D8"/>
<stop offset="1" stop-color="#2795D9"/>
</linearGradient>
<linearGradient id="paint94_linear_592_256" x1="243.12" y1="229.74" x2="243.12" y2="247.41" gradientUnits="userSpaceOnUse">
<stop stop-color="#25FAC8"/>
<stop offset="0.19" stop-color="#25EDCA"/>
<stop offset="0.53" stop-color="#25CCCF"/>
<stop offset="0.99" stop-color="#2696D8"/>
<stop offset="1" stop-color="#2795D9"/>
</linearGradient>
<linearGradient id="paint95_linear_592_256" x1="191.44" y1="136.12" x2="191.44" y2="168.8" gradientUnits="userSpaceOnUse">
<stop stop-color="#25FAC8"/>
<stop offset="0.19" stop-color="#25EDCA"/>
<stop offset="0.53" stop-color="#25CCCF"/>
<stop offset="0.99" stop-color="#2696D8"/>
<stop offset="1" stop-color="#2795D9"/>
</linearGradient>
<linearGradient id="paint96_linear_592_256" x1="236.67" y1="194.96" x2="236.67" y2="217.33" gradientUnits="userSpaceOnUse">
<stop stop-color="#25FAC8"/>
<stop offset="0.19" stop-color="#25EDCA"/>
<stop offset="0.53" stop-color="#25CCCF"/>
<stop offset="0.99" stop-color="#2696D8"/>
<stop offset="1" stop-color="#2795D9"/>
</linearGradient>
<linearGradient id="paint97_linear_592_256" x1="190.65" y1="144.05" x2="190.65" y2="201.54" gradientUnits="userSpaceOnUse">
<stop stop-color="#25FAC8"/>
<stop offset="0.19" stop-color="#25EDCA"/>
<stop offset="0.53" stop-color="#25CCCF"/>
<stop offset="0.99" stop-color="#2696D8"/>
<stop offset="1" stop-color="#2795D9"/>
</linearGradient>
<linearGradient id="paint98_linear_592_256" x1="169.29" y1="144.05" x2="169.29" y2="188" gradientUnits="userSpaceOnUse">
<stop stop-color="#25FAC8"/>
<stop offset="0.19" stop-color="#25EDCA"/>
<stop offset="0.53" stop-color="#25CCCF"/>
<stop offset="0.99" stop-color="#2696D8"/>
<stop offset="1" stop-color="#2795D9"/>
</linearGradient>
<linearGradient id="paint99_linear_592_256" x1="157.47" y1="142.67" x2="157.47" y2="184.56" gradientUnits="userSpaceOnUse">
<stop stop-color="#25FAC8"/>
<stop offset="0.19" stop-color="#25EDCA"/>
<stop offset="0.53" stop-color="#25CCCF"/>
<stop offset="0.99" stop-color="#2696D8"/>
<stop offset="1" stop-color="#2795D9"/>
</linearGradient>
<linearGradient id="paint100_linear_592_256" x1="295.41" y1="226.56" x2="295.41" y2="235.55" gradientUnits="userSpaceOnUse">
<stop stop-color="#25FAC8"/>
<stop offset="0.19" stop-color="#25EDCA"/>
<stop offset="0.53" stop-color="#25CCCF"/>
<stop offset="0.99" stop-color="#2696D8"/>
<stop offset="1" stop-color="#2795D9"/>
</linearGradient>
<linearGradient id="paint101_linear_592_256" x1="329.26" y1="210.62" x2="329.26" y2="244.28" gradientUnits="userSpaceOnUse">
<stop stop-color="#25FAC8"/>
<stop offset="0.19" stop-color="#25EDCA"/>
<stop offset="0.53" stop-color="#25CCCF"/>
<stop offset="0.99" stop-color="#2696D8"/>
<stop offset="1" stop-color="#2795D9"/>
</linearGradient>
<linearGradient id="paint102_linear_592_256" x1="319.99" y1="193.49" x2="319.99" y2="222.46" gradientUnits="userSpaceOnUse">
<stop stop-color="#25FAC8"/>
<stop offset="0.19" stop-color="#25EDCA"/>
<stop offset="0.53" stop-color="#25CCCF"/>
<stop offset="0.99" stop-color="#2696D8"/>
<stop offset="1" stop-color="#2795D9"/>
</linearGradient>
<linearGradient id="paint103_linear_592_256" x1="317.81" y1="165.04" x2="317.81" y2="198.94" gradientUnits="userSpaceOnUse">
<stop stop-color="#25FAC8"/>
<stop offset="0.19" stop-color="#25EDCA"/>
<stop offset="0.53" stop-color="#25CCCF"/>
<stop offset="0.99" stop-color="#2696D8"/>
<stop offset="1" stop-color="#2795D9"/>
</linearGradient>
<linearGradient id="paint104_linear_592_256" x1="327.1" y1="175.31" x2="327.1" y2="201.75" gradientUnits="userSpaceOnUse">
<stop stop-color="#25FAC8"/>
<stop offset="0.19" stop-color="#25EDCA"/>
<stop offset="0.53" stop-color="#25CCCF"/>
<stop offset="0.99" stop-color="#2696D8"/>
<stop offset="1" stop-color="#2795D9"/>
</linearGradient>
<linearGradient id="paint105_linear_592_256" x1="372.35" y1="196.62" x2="372.35" y2="196.73" gradientUnits="userSpaceOnUse">
<stop stop-color="#25FAC8"/>
<stop offset="0.19" stop-color="#25EDCA"/>
<stop offset="0.53" stop-color="#25CCCF"/>
<stop offset="0.99" stop-color="#2696D8"/>
<stop offset="1" stop-color="#2795D9"/>
</linearGradient>
<linearGradient id="paint106_linear_592_256" x1="372.35" y1="196.62" x2="372.35" y2="196.73" gradientUnits="userSpaceOnUse">
<stop stop-color="#25FAC8"/>
<stop offset="0.19" stop-color="#25EDCA"/>
<stop offset="0.53" stop-color="#25CCCF"/>
<stop offset="0.99" stop-color="#2696D8"/>
<stop offset="1" stop-color="#2795D9"/>
</linearGradient>
<linearGradient id="paint107_linear_592_256" x1="372.35" y1="196.62" x2="372.35" y2="196.73" gradientUnits="userSpaceOnUse">
<stop stop-color="#25FAC8"/>
<stop offset="0.19" stop-color="#25EDCA"/>
<stop offset="0.53" stop-color="#25CCCF"/>
<stop offset="0.99" stop-color="#2696D8"/>
<stop offset="1" stop-color="#2795D9"/>
</linearGradient>
</defs>
</svg>
